<svg width="28" height="34" viewBox="0 0 28 34" fill="none" xmlns="http://www.w3.org/2000/svg">
<path d="M0.0488281 28.9028L10.244 24.3418H17.4879L27.9513 28.9028C25.5366 31.3174 19.5805 34.0003 14 34.0003C8.41956 34.0003 3.00005 31.5857 0.0488281 28.9028Z" fill="#C9C9C9" fill-opacity="0.2"/>
<path d="M5.41406 7.46847V1.69434C5.41406 1.14205 5.86178 0.694336 6.41406 0.694336H15.0419C15.5942 0.694336 16.0419 1.14205 16.0419 1.69434V14.6699C16.0419 15.2222 15.5942 15.6699 15.0419 15.6699H10.6662C10.3124 15.6699 9.98499 15.483 9.80512 15.1783L5.55297 7.97691C5.46203 7.8229 5.41406 7.64732 5.41406 7.46847Z" fill="#C9C9C9"/>
<path d="M22.6465 7.46847V1.69434C22.6465 1.14205 22.1988 0.694336 21.6465 0.694336H13.0187C12.4664 0.694336 12.0187 1.14205 12.0187 1.69434V14.6699C12.0187 15.2222 12.4664 15.6699 13.0187 15.6699H17.3943C17.7481 15.6699 18.0756 15.483 18.2554 15.1783L22.5076 7.97691C22.5985 7.8229 22.6465 7.64732 22.6465 7.46847Z" fill="#C9C9C9"/>
<rect x="10.0977" y="16.3057" width="7.56557" height="7.2053" rx="1" fill="#C9C9C9"/>
</svg>
